Land_normalized_Motion_pl03
version=1
nRows=10
nColumns=43
inDegrees=yes
endheader
time		pelvis_tilt		pelvis_list		pelvis_rotation		pelvis_tx		pelvis_ty		pelvis_tz		hip_flexion_r		hip_adduction_r		hip_rotation_r		knee_angle_r		ankle_angle_r		subtalar_angle_r		mtp_angle_r		hip_flexion_l		hip_adduction_l		hip_rotation_l		knee_angle_l		ankle_angle_l		subtalar_angle_l		mtp_angle_l		lumbar_extension		lumbar_bending		lumbar_rotation		neck_flexion		neck_lateral_bending		neck_rotation		arm_flex_r		arm_add_r		arm_rot_r		elbow_flex_r		pro_sup_r		wrist_flex_r		wrist_dev_r		hand_finger_flex_r		arm_flex_l		arm_add_l		arm_rot_l		elbow_flex_l		pro_sup_l		wrist_flex_l		wrist_dev_l		hand_finger_flex_l		
3.218939		0.049136		-0.174026		92.116101		-0.004337		0.400830		0.480738		98.385477		-5.221094		3.848498		-134.044519		7.332998		12.838878		32.100856		94.829123		-12.781978		4.105583		-134.608340		29.783729		14.309179		24.767065		-51.223838		-5.610281		2.117086		17.243016		10.377199		-7.382900		72.673756		-28.310602		13.341701		53.298388		122.570213		-13.721055		-16.511155		-34.680067		92.600957		-22.121735		35.929764		58.013693		142.047629		-30.776823		-12.530475		-12.793761		
3.221692		-0.004097		-0.323236		92.161166		-0.003863		0.397969		0.480177		98.754618		-5.429344		4.009340		-134.422264		7.707748		13.358244		32.128454		95.274252		-13.032165		4.189013		-134.958094		30.065171		14.870282		24.813926		-51.258653		-5.723990		1.908013		17.616204		10.670325		-7.401766		74.445924		-28.014953		13.522747		52.771472		122.765634		-13.219182		-16.193251		-34.745301		94.605814		-21.447188		36.623473		56.978249		141.839364		-30.292771		-12.388805		-13.068084		
3.224444		-0.080988		-0.416363		92.258558		-0.003659		0.395345		0.479819		99.069144		-5.763288		4.165079		-134.785283		7.995892		14.171934		32.169379		95.650620		-13.168929		4.258299		-135.281134		30.296897		15.608644		24.859985		-51.370976		-5.824363		1.678842		17.913907		11.109433		-7.474674		76.338783		-27.805199		13.829384		52.064914		122.963316		-12.576469		-15.845420		-34.853660		96.821580		-20.795108		37.721092		55.813219		141.602460		-29.616071		-12.305558		-13.483895		
3.227197		-0.202425		-0.497591		92.305215		-0.003385		0.392820		0.479431		99.407346		-6.058317		4.352402		-135.151098		8.319024		14.976596		32.227758		95.997035		-13.369611		4.248679		-135.596714		30.496932		16.308360		24.900779		-51.500217		-5.974489		1.445808		18.311413		11.471689		-7.504320		78.207210		-27.517399		14.042907		51.339128		123.059920		-11.945398		-15.513161		-35.105230		98.964501		-20.128365		38.798765		54.615509		141.197259		-28.963066		-12.140793		-14.155947		
3.229949		-0.253337		-0.792387		92.185617		-0.002710		0.390013		0.478724		99.991555		-6.143519		4.465084		-135.498182		8.693330		15.376920		32.250472		96.603626		-13.780463		4.343791		-135.953717		30.630021		16.483028		24.918434		-51.367556		-6.162420		1.294987		18.905163		11.402760		-7.453628		79.815713		-27.030743		14.051602		50.798841		123.035271		-11.639579		-15.226709		-35.159913		100.562708		-19.442973		38.970381		53.687424		141.034201		-28.486834		-11.862410		-14.332167		
3.232702		-0.278043		-1.065577		92.080530		-0.002436		0.387295		0.478233		100.565422		-6.312174		4.558543		-135.820073		8.807113		15.928715		32.269821		97.229709		-14.079174		4.381632		-136.322165		30.693646		16.721054		24.934500		-51.248240		-6.285417		1.188431		19.411766		11.422885		-7.450149		81.562045		-26.588465		14.184814		50.062015		123.025208		-11.255608		-14.899081		-35.144837		102.294713		-18.763555		39.397294		52.638072		141.050567		-27.848409		-11.657531		-14.402669		
3.235455		-0.337543		-1.279131		92.014360		-0.002152		0.384903		0.477805		101.061264		-6.469348		4.689098		-136.133025		8.859666		16.447197		32.289758		97.756989		-14.298307		4.471934		-136.633702		30.716369		16.970353		24.948401		-51.229286		-6.406035		1.044773		19.721795		11.518077		-7.463766		83.276133		-26.223920		14.353683		49.431754		123.016345		-10.899560		-14.646420		-35.139518		104.001565		-18.167825		39.868245		51.708170		141.114554		-27.274830		-11.496822		-14.503360		
3.238207		-0.433399		-1.353837		91.935700		-0.001892		0.383036		0.477422		101.388842		-6.615494		4.879248		-136.413258		8.931666		16.807725		32.319755		98.086955		-14.467800		4.532894		-136.895815		30.704078		17.218579		24.964298		-51.418385		-6.550819		0.852995		19.746349		11.708787		-7.456196		84.888117		-25.941009		14.537009		49.046954		122.970360		-10.657433		-14.605846		-35.241201		105.645943		-17.749761		40.343746		51.066313		141.163264		-26.932146		-11.362563		-14.814145		
3.240960		-0.638445		-1.342524		91.925652		-0.001426		0.381112		0.477358		101.735399		-6.754420		5.100813		-136.753431		8.902503		17.595097		32.395442		98.323955		-14.628601		4.489041		-137.143926		30.574363		17.802728		24.994841		-51.632694		-6.825650		0.398399		20.277392		12.014357		-7.382593		87.089566		-25.364049		15.273106		47.457299		122.863120		-9.970180		-14.421838		-35.487101		108.102211		-17.055831		41.952967		49.187016		141.304860		-26.014745		-11.053396		-15.563174		
3.243712		-0.677209		-1.640043		91.719758		-0.001015		0.378776		0.476824		102.375338		-6.729518		5.207534		-137.048172		8.820124		18.019307		32.420016		98.967163		-15.022258		4.519533		-137.491609		30.557958		17.873023		25.007214		-51.484268		-6.979819		0.376149		20.852370		11.831557		-7.302259		88.704916		-24.845053		15.281943		46.685167		122.781453		-9.780440		-14.192870		-35.558798		109.559605		-16.436204		42.212232		48.243065		141.291855		-25.529024		-10.763369		-15.714713		
